<svg width="20" height="20" viewBox="0 0 20 20" fill="none" xmlns="http://www.w3.org/2000/svg">
<path d="M7.29382 17.1897C7.13834 17.1897 6.98286 17.1324 6.86011 17.0097C6.6228 16.7723 6.6228 16.3796 6.86011 16.1422L12.1955 10.8069C12.5883 10.4141 12.5883 9.77578 12.1955 9.38299L6.86011 4.04759C6.6228 3.81028 6.6228 3.41749 6.86011 3.18018C7.09742 2.94287 7.49021 2.94287 7.72752 3.18018L13.0629 8.51558C13.4803 8.93292 13.7176 9.49755 13.7176 10.0949C13.7176 10.6923 13.4884 11.2569 13.0629 11.6743L7.72752 17.0097C7.60478 17.1242 7.4493 17.1897 7.29382 17.1897Z" fill="#F9FCFB"/>
</svg>
