<svg width="66" height="66" viewBox="0 0 66 66" fill="none" xmlns="http://www.w3.org/2000/svg">
<path d="M33.1242 29.5972C33.0764 29.5361 33.0153 29.4867 32.9456 29.4527C32.8759 29.4188 32.7993 29.4011 32.7218 29.4011C32.6443 29.4011 32.5677 29.4188 32.498 29.4527C32.4283 29.4867 32.3672 29.5361 32.3194 29.5972L25.1662 38.6473C25.1072 38.7226 25.0706 38.813 25.0606 38.9081C25.0505 39.0033 25.0675 39.0993 25.1095 39.1852C25.1514 39.2712 25.2167 39.3436 25.2979 39.3942C25.3791 39.4447 25.4729 39.4714 25.5685 39.4712H30.2884V54.953C30.2884 55.234 30.5183 55.4639 30.7994 55.4639H34.6315C34.9125 55.4639 35.1424 55.234 35.1424 54.953V39.4776H39.8751C40.303 39.4776 40.5393 38.9858 40.2774 38.6537L33.1242 29.5972Z" fill="black"/>
<path d="M51.844 23.7021C48.9188 15.9868 41.4654 10.5005 32.7345 10.5005C24.0037 10.5005 16.5502 15.9804 13.6251 23.6957C8.15152 25.1328 4.10864 30.1209 4.10864 36.0479C4.10864 43.1054 9.82488 48.8216 16.876 48.8216H19.4371C19.7181 48.8216 19.948 48.5917 19.948 48.3107V44.4786C19.948 44.1975 19.7181 43.9676 19.4371 43.9676H16.876C14.7236 43.9676 12.699 43.1118 11.1917 41.5598C9.69075 40.0141 8.8924 37.932 8.96265 35.7733C9.02013 34.0871 9.59495 32.5032 10.636 31.1684C11.7026 29.808 13.1971 28.818 14.8577 28.3773L17.2783 27.745L18.1661 25.4074C18.7154 23.9512 19.4818 22.5908 20.4462 21.3581C21.3983 20.1364 22.5261 19.0624 23.7929 18.1711C26.4179 16.3253 29.5092 15.3481 32.7345 15.3481C35.9599 15.3481 39.0511 16.3253 41.6761 18.1711C42.9471 19.0653 44.0712 20.1383 45.0228 21.3581C45.9873 22.5908 46.7537 23.9576 47.3029 25.4074L48.1843 27.7386L50.5986 28.3773C54.0602 29.3098 56.4809 32.4585 56.4809 36.0479C56.4809 38.162 55.657 40.1547 54.1624 41.6492C53.4295 42.3864 52.5576 42.9709 51.5972 43.3689C50.6369 43.7668 49.6071 43.9703 48.5675 43.9676H46.0064C45.7254 43.9676 45.4955 44.1975 45.4955 44.4786V48.3107C45.4955 48.5917 45.7254 48.8216 46.0064 48.8216H48.5675C55.6186 48.8216 61.3349 43.1054 61.3349 36.0479C61.3349 30.1273 57.3048 25.1455 51.844 23.7021Z" fill="black"/>
</svg>
