<svg width="171" height="143" viewBox="0 0 171 143" fill="rgba(41, 45, 50, 1)" xmlns="http://www.w3.org/2000/svg">
<path d="M100.494 135.332C88.2845 127.529 80.6887 114.589 79.8045 99.7955C79.593 96.2824 82.2847 93.1919 85.8441 92.9077C89.4036 92.6236 92.4481 95.3878 92.7322 98.9473C93.4394 109.533 98.7863 118.784 107.507 124.358C122.697 134.065 143.02 129.653 152.774 114.391C162.527 99.1287 158.068 78.878 142.806 69.1243C132.486 62.529 119.218 61.8282 108.293 67.2315L68.5506 86.9736C53.5264 94.4659 35.4428 93.452 21.3436 84.4414C0.12221 70.8791 -6.1204 42.5276 7.4419 21.3062C21.0042 0.0847715 49.3554 -6.15774 70.5768 7.40456C82.7864 15.2075 90.3819 28.148 91.2661 42.941C91.4776 46.4541 88.7857 49.5451 85.2262 49.8292C81.6405 49.9943 78.6228 47.3488 78.3386 43.7894C77.6314 33.2039 72.2845 23.9523 63.5634 18.3787C48.3741 8.67145 28.0505 13.0839 18.2968 28.3459C8.54311 43.6078 13.0021 63.8591 28.2641 73.6128C38.5841 80.2081 51.8526 80.9083 62.778 75.5051L102.52 55.7633C117.544 48.2711 135.628 49.2851 149.727 58.2957C170.948 71.858 177.191 100.209 163.629 121.43C150.066 142.652 121.715 148.894 100.494 135.332Z" fill="#292D32"/>
</svg>
