<svg width="33" height="33" viewBox="0 0 33 33" fill="none" xmlns="http://www.w3.org/2000/svg">
<path d="M24.0023 23.2805C23.8219 23.2805 23.6543 23.2805 23.4738 23.3063C23.4738 23.3192 23.4738 23.3321 23.4738 23.345C23.4738 24.8274 22.7519 26.2067 21.4629 27.2379C20.7152 27.8309 19.8258 28.2692 18.8461 28.527C19.4261 30.3575 21.5015 31.7239 23.9894 31.7239C26.9156 31.7239 29.3004 29.8418 29.3004 27.5086C29.3004 25.1625 26.9285 23.2805 24.0023 23.2805Z" fill="#DBB79B"/>
<path d="M26.7609 10.4415C26.5933 9.53911 25.4847 8.84302 24.0023 8.84302C23.0097 8.84302 22.1847 9.16528 21.6949 9.64224L24.1699 22.5844C26.9672 22.636 29.2875 24.286 29.816 26.4516L26.7609 10.4415Z" fill="#DBB79B"/>
<path d="M9.52616 23.332C9.52616 23.3191 9.52616 23.3062 9.52616 23.2934C9.35858 23.2805 9.17811 23.2676 8.99764 23.2676C6.07147 23.2676 3.68671 25.1496 3.68671 27.4828C3.68671 29.816 6.05858 31.698 8.99764 31.698C11.4855 31.698 13.5738 30.3445 14.141 28.5012C13.1742 28.2434 12.2848 27.8051 11.5242 27.2121C10.248 26.1938 9.52616 24.8016 9.52616 23.332Z" fill="#DBB79B"/>
<path d="M8.83005 22.5844L11.3051 9.64224C10.8152 9.16528 9.99021 8.84302 8.99763 8.84302C7.51521 8.84302 6.40662 9.53911 6.23904 10.4415L3.18396 26.4516C3.71248 24.286 6.03279 22.636 8.83005 22.5844Z" fill="#DBB79B"/>
<path d="M22.6617 23.1128C22.6617 23.1 22.6617 23.1 22.6617 23.0871C22.6617 22.8679 22.6488 22.6488 22.6101 22.4296C22.3394 20.8183 21.0762 19.439 19.3359 18.7171C18.4851 18.3562 17.5055 18.1628 16.4613 18.1628C15.2109 18.1628 14.0637 18.4593 13.084 18.9492C11.5758 19.7226 10.5187 21.0117 10.2996 22.507C10.2738 22.6875 10.2609 22.8808 10.2609 23.0742C10.2609 23.1257 10.2609 23.1644 10.2609 23.216C10.3383 25.1625 11.8207 26.8253 13.9476 27.573C14.7211 27.8437 15.5719 27.9984 16.4742 27.9984C17.1703 27.9984 17.8406 27.9082 18.4594 27.7406C20.8828 27.096 22.6488 25.2656 22.6617 23.1128Z" fill="#DBB79B"/>
<path d="M9.66797 21.8625C10.0418 20.2898 11.2793 18.9621 12.9422 18.15C13.9992 17.6344 15.2367 17.3379 16.5258 17.3379C17.5828 17.3379 18.5883 17.5441 19.4906 17.8922C21.4113 18.6527 22.8422 20.1094 23.2547 21.8496L21.0117 10.0289L19.6969 3.14531C19.5035 2.10117 18.2016 1.28906 16.4742 1.28906C14.7469 1.28906 13.4578 2.10117 13.2516 3.14531L11.6531 11.4469L9.66797 21.8625Z" fill="#DBB79B"/>
</svg>
