<svg width="22" height="22" viewBox="0 0 22 22" fill="none" xmlns="http://www.w3.org/2000/svg">
<path d="M21.4834 11.0145C21.4834 11.8863 20.7766 12.593 19.9049 12.593H14.7504C13.6458 12.593 12.7504 13.4884 12.7504 14.593V19.7065C12.7504 20.6689 11.9702 21.449 11.0079 21.449C10.0455 21.449 9.26536 20.6689 9.26536 19.7065V14.593C9.26536 13.4884 8.36993 12.593 7.26536 12.593H2.15187C1.28008 12.593 0.573364 11.8863 0.573364 11.0145C0.573364 10.1427 1.28008 9.436 2.15186 9.436H7.26536C8.36993 9.436 9.26536 8.54057 9.26536 7.436V2.2815C9.26536 1.31915 10.0455 0.539001 11.0079 0.539001C11.9702 0.539001 12.7504 1.31915 12.7504 2.2815V7.436C12.7504 8.54057 13.6458 9.436 14.7504 9.436H19.9049C20.7766 9.436 21.4834 10.1427 21.4834 11.0145Z" fill="#F9FCFB"/>
</svg>
